# xmcd
#
# Track frame offsets: 
#        150
#        15301
#        28840
#        40505
#        56146
#        73960
#        83753
#        100401
#        122517
#        137860
#        152209
#        164505
#        177859
#        193622
#        209503
#        222605
#
# Disc length: 3120 seconds
#
# Revision: 0
# Processed by: cddbd v1.5.2PL0 Copyright (c) Steve Scherf et al.
# Submitted via: ExactAudioCopy v0.99pb3
#
DISCID=ea0c2e10
DTITLE=Bobby Radcliff - Freaking Me Out
DYEAR=2011
DGENRE=Blues
TTITLE0=Invisible Man
TTITLE1=Quake
TTITLE2=Indiana Woman
TTITLE3=San Francisco Drive
TTITLE4=Blackhearted Woman
TTITLE5=Picking On Me
TTITLE6=Bad Dreams
TTITLE7=Rub A Dub
TTITLE8=Tango Whip
TTITLE9=Emergency Room
TTITLE10=Billy's Nocturne
TTITLE11=Quake (Alt)
TTITLE12=Invisible Man (Alt)
TTITLE13=San Francisco Drive (Alt)
TTITLE14=Indiana Woman (Alt)
TTITLE15=Emergency Room (Alt)
EXTD=
EXTT0=
EXTT1=
EXTT2=
EXTT3=
EXTT4=
EXTT5=
EXTT6=
EXTT7=
EXTT8=
EXTT9=
EXTT10=
EXTT11=
EXTT12=
EXTT13=
EXTT14=
EXTT15=
PLAYORDER=
